# xmcd
#
# Track frame offsets: 
#        150
#        13373
#        29700
#        43847
#        56511
#        72518
#        83595
#        115015
#        138112
#        153030
#        164745
#        178102
#        199260
#        213106
#        223261
#        246673
#        265262
#        281714
#
# Disc length: 4073 seconds
#
# Revision: 0
# Processed by: cddbd v1.5.2PL0 Copyright (c) Steve Scherf et al.
# Submitted via: ExactAudioCopyFreeDBPlugin 1.0
#
DISCID=180fe712
DTITLE=Earl Scruggs - Family and Friends (Ultimate Collection Live At 
DTITLE=The Ryman)
DYEAR=2008
DGENRE=Bluegrass
TTITLE0=Salty Dog Blues
TTITLE1=Borrowed Love
TTITLE2=Earl's Breakdown
TTITLE3=Streamlined Cannonball
TTITLE4=You Ain't Going Nowhere
TTITLE5=Soldier's Joy
TTITLE6=In The Pines
TTITLE7=Doin' My Time
TTITLE8=Sittin' On Top Of The World
TTITLE9=Sally Gooding
TTITLE10=Foggy Mountain Rock
TTITLE11=You Are My Flower
TTITLE12=Bound In Jail All Night Long
TTITLE13=Black Mountain Blues
TTITLE14=Step It Up And Go
TTITLE15=Ballad Of Jed Clampett
TTITLE16=Foggy Mountain Breakdown
TTITLE17=Lonesome Ruben
EXTD=
EXTT0=
EXTT1=
EXTT2=
EXTT3=
EXTT4=
EXTT5=
EXTT6=
EXTT7=
EXTT8=
EXTT9=
EXTT10=
EXTT11=
EXTT12=
EXTT13=
EXTT14=
EXTT15=
EXTT16=
EXTT17=
PLAYORDER=
